<?xml version="1.0" encoding="utf-8"?>
<!-- Generator: Adobe Illustrator 22.1.0, SVG Export Plug-In . SVG Version: 6.00 Build 0)  -->
<svg version="1.1" xmlns="http://www.w3.org/2000/svg" xmlns:xlink="http://www.w3.org/1999/xlink" x="0px" y="0px"
	 viewBox="0 0 160.3 160.7" style="enable-background:new 0 0 160.3 160.7;" xml:space="preserve">
<style type="text/css">
	.st0{display:none;}
	.st1{fill:#AD93CE;}
</style>
<g id="レイヤー_1" class="st0">
	
		<image style="display:inline;overflow:visible;" width="176" height="176" xlink:href="zoom.png"  transform="matrix(1 0 0 1 -10 -11.5945)">
	</image>
</g>
<g id="レイヤー_2">
	<path class="st1" d="M66,11.5c30,0,54.4,24.4,54.4,54.4S96,120.3,66,120.3S11.5,95.9,11.5,65.9S36,11.5,66,11.5 M66,1.5
		C30.4,1.5,1.5,30.3,1.5,65.9s28.8,64.4,64.4,64.4s64.4-28.8,64.4-64.4S101.6,1.5,66,1.5L66,1.5z"/>
	<rect x="42.7" y="61.9" class="st1" width="46.5" height="8"/>
	<rect x="62" y="42.6" class="st1" width="8" height="46.5"/>
	<g>
		<path class="st1" d="M142.6,148.3c-2.2,2.2-5.8,2.2-8,0l-20-20c-2.2-2.2-2.2-5.8,0-8l4.7-4.7c2.2-2.2,5.8-2.2,8,0l20,20
			c2.2,2.2,2.2,5.8,0,8L142.6,148.3z"/>
	</g>
</g>
</svg>
